<svg id="visual" viewBox="0 0 1920 3240" width="1920" height="3240" xmlns="http://www.w3.org/2000/svg" xmlns:xlink="http://www.w3.org/1999/xlink" version="1.1"><rect x="0" y="0" width="1920" height="3240" fill="#497174"></rect><defs><linearGradient id="grad1_0" x1="0%" y1="0%" x2="100%" y2="100%"><stop offset="30%" stop-color="#497174" stop-opacity="1"></stop><stop offset="70%" stop-color="#497174" stop-opacity="1"></stop></linearGradient></defs><defs><linearGradient id="grad2_0" x1="0%" y1="0%" x2="100%" y2="100%"><stop offset="30%" stop-color="#497174" stop-opacity="1"></stop><stop offset="70%" stop-color="#497174" stop-opacity="1"></stop></linearGradient></defs><g transform="translate(1920, 0)"><path d="M0 1318.2C-126.5 1208.6 -253 1099.1 -438.6 1058.8C-624.1 1018.5 -868.7 1047.4 -932.1 932.1C-995.5 816.7 -877.7 557.1 -911.9 377.7C-946 198.3 -1132.1 99.2 -1318.2 0L0 0Z" fill="#EB6440"></path></g><g transform="translate(0, 3240)"><path d="M0 -1318.2C116.4 -1107.1 232.7 -896.1 326.4 -788.1C420.1 -680 491.1 -675 659 -659C826.9 -643 1091.8 -616.1 1217.8 -504.4C1343.8 -392.8 1331 -196.4 1318.2 0L0 0Z" fill="#EB6440"></path></g></svg>